# xmcd
#
# Track frame offsets: 
#        150
#        17168
#        37756
#        54159
#        75272
#        95755
#        121323
#        143583
#        158448
#        178248
#
# Disc length: 2614 seconds
#
# Revision: 0
# Processed by: cddbd v1.5.2PL0 Copyright (c) Steve Scherf et al.
# Submitted via: ExactAudioCopy v1.0b4
#
DISCID=6b0a340a
DTITLE=Harper - Down to the Rhythm
DYEAR=2005
DGENRE=Blues Rock
TTITLE0=Down To The Rhythm
TTITLE1=Big Brown Land
TTITLE2=Last Cup of Coffee
TTITLE3=Something Happened Here Last Ni
TTITLE4=Gimmie The Money
TTITLE5=I'll Follow You
TTITLE6=I've Been Waiting
TTITLE7=Air
TTITLE8=I Believed In You
TTITLE9=The World Starts Loving You
EXTD=
EXTT0=
EXTT1=
EXTT2=
EXTT3=
EXTT4=
EXTT5=
EXTT6=
EXTT7=
EXTT8=
EXTT9=
PLAYORDER=
